<?xml version="1.0" encoding="utf-8"?>
<!-- Generator: Adobe Illustrator 23.0.4, SVG Export Plug-In . SVG Version: 6.00 Build 0)  -->
<svg version="1.1" xmlns="http://www.w3.org/2000/svg" xmlns:xlink="http://www.w3.org/1999/xlink" x="0px" y="0px"
	 viewBox="0 0 246 82.6" style="enable-background:new 0 0 246 82.6;" xml:space="preserve">
<style type="text/css">
	.st0{fill:#FFFFFF;}
</style>
<g id="Layer_2">
</g>
<g id="Layer_1">
	<g>
		<path class="st0" d="M76.7,40.4c0.7,0.7,1.1,1.4,1.2,2.3h-1.3c-0.1-0.6-0.4-1.2-0.9-1.5s-1.1-0.6-1.9-0.6c-1,0-1.8,0.3-2.4,1
			c-0.6,0.7-0.9,1.8-0.9,3.2c0,1.2,0.3,2.1,0.8,2.9c0.5,0.7,1.3,1.1,2.4,1.1c1,0,1.7-0.4,2.2-1.2c0.3-0.4,0.5-0.9,0.6-1.6h1.3
			c-0.1,1.1-0.5,1.9-1.2,2.7c-0.8,0.9-1.9,1.3-3.2,1.3c-1.2,0-2.1-0.4-2.9-1.1c-1-0.9-1.5-2.4-1.5-4.3c0-1.5,0.4-2.7,1.2-3.6
			c0.8-1,2-1.5,3.5-1.5C75,39.3,76,39.7,76.7,40.4z"/>
		<path class="st0" d="M79.8,39.6h1.9l2.9,8.5l2.9-8.5h1.9v10h-1.3v-5.9c0-0.2,0-0.5,0-1s0-1,0-1.5l-2.9,8.5h-1.3L81,41.2v0.3
			c0,0.2,0,0.6,0,1.1s0,0.9,0,1.1v5.9h-1.3V39.6z"/>
		<path class="st0" d="M92.5,46.4c0,0.6,0.2,1,0.4,1.4c0.4,0.7,1.2,1,2.3,1c0.5,0,0.9-0.1,1.3-0.2c0.8-0.3,1.2-0.8,1.2-1.5
			c0-0.5-0.2-0.9-0.5-1.2c-0.3-0.2-0.9-0.4-1.6-0.6L94.3,45c-0.9-0.2-1.5-0.4-1.8-0.7c-0.6-0.4-0.9-1-0.9-1.9c0-0.9,0.3-1.6,0.9-2.2
			c0.6-0.6,1.5-0.9,2.6-0.9c1,0,1.9,0.3,2.6,0.8s1.1,1.3,1.1,2.4h-1.3c-0.1-0.5-0.2-1-0.4-1.2c-0.4-0.5-1.1-0.8-2-0.8
			c-0.8,0-1.3,0.2-1.7,0.5s-0.5,0.7-0.5,1.2c0,0.5,0.2,0.9,0.6,1.1c0.3,0.1,0.9,0.3,1.8,0.5l1.4,0.3c0.7,0.2,1.2,0.4,1.5,0.6
			c0.6,0.5,0.9,1.2,0.9,2c0,1.1-0.4,1.9-1.2,2.4C97,49.7,96.1,50,95.1,50c-1.2,0-2.2-0.3-2.9-1c-0.7-0.6-1-1.5-1-2.6H92.5z"/>
		<path class="st0" d="M105.4,39.6h1.4v10h-1.4V39.6z"/>
		<path class="st0" d="M108.9,42.3h1.2v1c0.3-0.4,0.7-0.7,1.1-0.9s0.8-0.3,1.3-0.3c1,0,1.7,0.4,2.1,1.1c0.2,0.4,0.3,1,0.3,1.7v4.7
			h-1.3V45c0-0.4-0.1-0.8-0.2-1.1c-0.2-0.5-0.6-0.7-1.2-0.7c-0.3,0-0.5,0-0.7,0.1c-0.3,0.1-0.6,0.3-0.9,0.6
			c-0.2,0.2-0.3,0.5-0.4,0.7s-0.1,0.6-0.1,1.1v3.8h-1.2V42.3z"/>
		<path class="st0" d="M117.5,47.4c0,0.4,0.1,0.7,0.3,0.9c0.3,0.4,0.9,0.6,1.6,0.6c0.5,0,0.9-0.1,1.2-0.3s0.5-0.5,0.5-0.9
			c0-0.3-0.1-0.6-0.4-0.7c-0.2-0.1-0.5-0.2-1.1-0.3l-1-0.2c-0.6-0.2-1.1-0.3-1.4-0.5c-0.5-0.3-0.8-0.8-0.8-1.4
			c0-0.7,0.3-1.3,0.8-1.7c0.5-0.4,1.2-0.6,2-0.6c1.1,0,1.9,0.3,2.4,1c0.3,0.4,0.5,0.9,0.5,1.3h-1.2c0-0.3-0.1-0.5-0.3-0.8
			c-0.3-0.3-0.8-0.5-1.5-0.5c-0.5,0-0.8,0.1-1.1,0.3c-0.2,0.2-0.4,0.4-0.4,0.7c0,0.3,0.2,0.6,0.5,0.8c0.2,0.1,0.5,0.2,0.8,0.3
			l0.8,0.2c0.9,0.2,1.5,0.4,1.8,0.6c0.5,0.3,0.7,0.8,0.7,1.5c0,0.7-0.3,1.2-0.8,1.7s-1.3,0.7-2.3,0.7c-1.1,0-1.9-0.2-2.3-0.7
			c-0.5-0.5-0.7-1.1-0.7-1.8H117.5z"/>
		<path class="st0" d="M125.2,42.3v4.9c0,0.4,0.1,0.7,0.2,0.9c0.2,0.4,0.6,0.7,1.2,0.7c0.8,0,1.4-0.4,1.7-1.1c0.2-0.4,0.2-1,0.2-1.7
			v-3.6h1.2v7.3h-1.2l0-1.1c-0.2,0.3-0.4,0.5-0.6,0.7c-0.5,0.4-1,0.6-1.7,0.6c-1,0-1.7-0.3-2.1-1c-0.2-0.4-0.3-0.9-0.3-1.5v-5H125.2
			z"/>
		<path class="st0" d="M131.9,42.3h1.2v1.3c0.1-0.2,0.3-0.5,0.7-0.9s0.8-0.5,1.3-0.5c0,0,0.1,0,0.1,0s0.1,0,0.3,0v1.3
			c-0.1,0-0.1,0-0.2,0c-0.1,0-0.1,0-0.2,0c-0.6,0-1.1,0.2-1.4,0.6s-0.5,0.9-0.5,1.4v4.2h-1.2V42.3z"/>
		<path class="st0" d="M140.6,45.2c0.3,0,0.5-0.2,0.6-0.4c0.1-0.1,0.1-0.3,0.1-0.5c0-0.4-0.1-0.7-0.4-0.9s-0.7-0.3-1.3-0.3
			c-0.6,0-1.1,0.2-1.4,0.5c-0.1,0.2-0.2,0.5-0.3,0.9h-1.1c0-0.9,0.3-1.5,0.9-1.9c0.6-0.4,1.2-0.5,2-0.5c0.9,0,1.6,0.2,2.1,0.5
			c0.5,0.3,0.8,0.8,0.8,1.5v4.2c0,0.1,0,0.2,0.1,0.3c0.1,0.1,0.2,0.1,0.3,0.1c0.1,0,0.1,0,0.2,0s0.1,0,0.2,0v0.9
			c-0.2,0.1-0.3,0.1-0.4,0.1s-0.2,0-0.4,0c-0.4,0-0.7-0.2-0.9-0.5c-0.1-0.2-0.2-0.4-0.2-0.7c-0.3,0.3-0.6,0.6-1.1,0.9
			c-0.5,0.2-1,0.4-1.6,0.4c-0.7,0-1.2-0.2-1.7-0.6c-0.4-0.4-0.6-0.9-0.6-1.5c0-0.7,0.2-1.2,0.6-1.6c0.4-0.4,1-0.6,1.7-0.7
			L140.6,45.2z M138,48.6c0.3,0.2,0.6,0.3,0.9,0.3c0.4,0,0.9-0.1,1.3-0.3c0.7-0.3,1-0.9,1-1.6v-1c-0.2,0.1-0.3,0.2-0.6,0.2
			s-0.5,0.1-0.7,0.1l-0.7,0.1c-0.4,0.1-0.8,0.2-1,0.3c-0.4,0.2-0.6,0.6-0.6,1C137.6,48.1,137.7,48.4,138,48.6z"/>
		<path class="st0" d="M144.6,42.3h1.2v1c0.3-0.4,0.7-0.7,1.1-0.9s0.8-0.3,1.3-0.3c1,0,1.7,0.4,2.1,1.1c0.2,0.4,0.3,1,0.3,1.7v4.7
			h-1.3V45c0-0.4-0.1-0.8-0.2-1.1c-0.2-0.5-0.6-0.7-1.2-0.7c-0.3,0-0.5,0-0.7,0.1c-0.3,0.1-0.6,0.3-0.9,0.6
			c-0.2,0.2-0.3,0.5-0.4,0.7c-0.1,0.3-0.1,0.6-0.1,1.1v3.8h-1.2V42.3z"/>
		<path class="st0" d="M157.3,42.7c0.5,0.4,0.8,1.1,0.9,2.1H157c-0.1-0.5-0.2-0.8-0.5-1.1s-0.7-0.4-1.3-0.4c-0.8,0-1.3,0.4-1.7,1.1
			c-0.2,0.5-0.3,1.1-0.3,1.8c0,0.7,0.2,1.3,0.5,1.9c0.3,0.5,0.8,0.8,1.5,0.8c0.5,0,0.9-0.2,1.2-0.5c0.3-0.3,0.5-0.7,0.6-1.3h1.2
			c-0.1,1-0.5,1.7-1,2.1s-1.2,0.7-2.1,0.7c-1,0-1.7-0.3-2.3-1s-0.9-1.6-0.9-2.6c0-1.3,0.3-2.3,0.9-3s1.4-1.1,2.4-1.1
			C156.1,42.1,156.8,42.3,157.3,42.7z"/>
		<path class="st0" d="M164.1,42.5c0.5,0.2,0.9,0.6,1.1,0.9c0.2,0.4,0.4,0.8,0.5,1.3c0.1,0.3,0.1,0.9,0.1,1.6h-5.3
			c0,0.7,0.2,1.3,0.5,1.8c0.3,0.5,0.8,0.7,1.5,0.7c0.6,0,1.1-0.2,1.5-0.6c0.2-0.2,0.4-0.5,0.5-0.9h1.2c0,0.3-0.1,0.6-0.3,0.9
			c-0.2,0.3-0.4,0.6-0.6,0.8c-0.4,0.4-0.8,0.6-1.4,0.7c-0.3,0.1-0.6,0.1-1,0.1c-0.9,0-1.7-0.3-2.3-1s-0.9-1.6-0.9-2.8
			c0-1.2,0.3-2.1,1-2.9s1.5-1.1,2.5-1.1C163.1,42.2,163.6,42.3,164.1,42.5z M164.6,45.4c0-0.5-0.2-1-0.3-1.3
			c-0.3-0.6-0.9-0.9-1.7-0.9c-0.6,0-1,0.2-1.4,0.6c-0.4,0.4-0.6,0.9-0.6,1.6H164.6z"/>
		<path class="st0" d="M173.9,39.6h1.5l3.6,10h-1.5l-1-3h-3.9l-1.1,3h-1.4L173.9,39.6z M176.1,45.5l-1.5-4.4l-1.6,4.4H176.1z"/>
		<path class="st0" d="M184.3,42.6c0.2,0.2,0.5,0.4,0.7,0.7v-0.9h1.1v6.7c0,0.9-0.1,1.7-0.4,2.2c-0.5,1-1.5,1.5-2.9,1.5
			c-0.8,0-1.4-0.2-2-0.5s-0.8-0.9-0.9-1.7h1.3c0.1,0.3,0.2,0.6,0.4,0.8c0.3,0.3,0.7,0.4,1.3,0.4c0.9,0,1.6-0.3,1.8-1
			c0.2-0.4,0.3-1.1,0.2-2.1c-0.2,0.4-0.5,0.7-0.9,0.8c-0.3,0.2-0.8,0.3-1.4,0.3c-0.8,0-1.5-0.3-2.1-0.8c-0.6-0.6-0.9-1.5-0.9-2.8
			c0-1.2,0.3-2.2,0.9-2.9s1.3-1,2.2-1C183.4,42.2,183.9,42.4,184.3,42.6z M184.4,44c-0.4-0.4-0.8-0.7-1.4-0.7
			c-0.9,0-1.5,0.4-1.8,1.2c-0.2,0.4-0.3,1-0.3,1.7c0,0.8,0.2,1.5,0.5,1.9s0.8,0.6,1.3,0.6c0.9,0,1.5-0.4,1.9-1.2
			c0.2-0.5,0.3-1,0.3-1.6C185,45.1,184.8,44.4,184.4,44z"/>
		<path class="st0" d="M192.7,42.5c0.5,0.2,0.9,0.6,1.1,0.9c0.2,0.4,0.4,0.8,0.5,1.3c0.1,0.3,0.1,0.9,0.1,1.6H189
			c0,0.7,0.2,1.3,0.5,1.8c0.3,0.5,0.8,0.7,1.5,0.7c0.6,0,1.1-0.2,1.5-0.6c0.2-0.2,0.4-0.5,0.5-0.9h1.2c0,0.3-0.1,0.6-0.3,0.9
			c-0.2,0.3-0.4,0.6-0.6,0.8c-0.4,0.4-0.8,0.6-1.4,0.7c-0.3,0.1-0.6,0.1-1,0.1c-0.9,0-1.7-0.3-2.3-1s-0.9-1.6-0.9-2.8
			c0-1.2,0.3-2.1,1-2.9s1.5-1.1,2.5-1.1C191.7,42.2,192.2,42.3,192.7,42.5z M193.1,45.4c0-0.5-0.2-1-0.3-1.3
			c-0.3-0.6-0.9-0.9-1.7-0.9c-0.6,0-1,0.2-1.4,0.6c-0.4,0.4-0.6,0.9-0.6,1.6H193.1z"/>
		<path class="st0" d="M196,42.3h1.2v1c0.3-0.4,0.7-0.7,1.1-0.9s0.8-0.3,1.3-0.3c1,0,1.7,0.4,2.1,1.1c0.2,0.4,0.3,1,0.3,1.7v4.7
			h-1.3V45c0-0.4-0.1-0.8-0.2-1.1c-0.2-0.5-0.6-0.7-1.2-0.7c-0.3,0-0.5,0-0.7,0.1c-0.3,0.1-0.6,0.3-0.9,0.6
			c-0.2,0.2-0.3,0.5-0.4,0.7c-0.1,0.3-0.1,0.6-0.1,1.1v3.8H196V42.3z"/>
		<path class="st0" d="M208.8,42.7c0.5,0.4,0.8,1.1,0.9,2.1h-1.2c-0.1-0.5-0.2-0.8-0.5-1.1s-0.7-0.4-1.3-0.4c-0.8,0-1.3,0.4-1.7,1.1
			c-0.2,0.5-0.3,1.1-0.3,1.8c0,0.7,0.2,1.3,0.5,1.9c0.3,0.5,0.8,0.8,1.5,0.8c0.5,0,0.9-0.2,1.2-0.5c0.3-0.3,0.5-0.7,0.6-1.3h1.2
			c-0.1,1-0.5,1.7-1,2.1s-1.2,0.7-2.1,0.7c-1,0-1.7-0.3-2.3-1s-0.9-1.6-0.9-2.6c0-1.3,0.3-2.3,0.9-3s1.4-1.1,2.4-1.1
			C207.6,42.1,208.3,42.3,208.8,42.7z"/>
		<path class="st0" d="M215.7,42.3h1.4c-0.2,0.5-0.6,1.5-1.2,3.2c-0.4,1.3-0.8,2.3-1.1,3.1c-0.7,1.9-1.2,3-1.5,3.4
			c-0.3,0.4-0.8,0.6-1.5,0.6c-0.2,0-0.3,0-0.4,0c-0.1,0-0.2,0-0.3-0.1v-1.1c0.2,0.1,0.4,0.1,0.5,0.1s0.2,0,0.3,0
			c0.2,0,0.4,0,0.5-0.1c0.1-0.1,0.2-0.2,0.3-0.3c0,0,0.1-0.2,0.2-0.6c0.1-0.3,0.2-0.6,0.3-0.8l-2.7-7.5h1.4l2,6L215.7,42.3z"/>
		<path class="st0" d="M217.4,51.1c0.3-0.1,0.5-0.3,0.7-0.7c0.1-0.2,0.1-0.4,0.1-0.6c0,0,0-0.1,0-0.1c0,0,0-0.1,0-0.1h-0.7v-1.5h1.5
			v1.4c0,0.5-0.1,1-0.3,1.4s-0.6,0.7-1.1,0.8V51.1z"/>
		<path class="st0" d="M225.7,39.6h1.4v10h-1.4V39.6z"/>
		<path class="st0" d="M229.2,42.3h1.2v1c0.3-0.4,0.7-0.7,1.1-0.9s0.8-0.3,1.3-0.3c1,0,1.7,0.4,2.1,1.1c0.2,0.4,0.3,1,0.3,1.7v4.7
			h-1.3V45c0-0.4-0.1-0.8-0.2-1.1c-0.2-0.5-0.6-0.7-1.2-0.7c-0.3,0-0.5,0-0.7,0.1c-0.3,0.1-0.6,0.3-0.9,0.6
			c-0.2,0.2-0.3,0.5-0.4,0.7c-0.1,0.3-0.1,0.6-0.1,1.1v3.8h-1.2V42.3z"/>
		<path class="st0" d="M242,42.7c0.5,0.4,0.8,1.1,0.9,2.1h-1.2c-0.1-0.5-0.2-0.8-0.5-1.1s-0.7-0.4-1.3-0.4c-0.8,0-1.3,0.4-1.7,1.1
			c-0.2,0.5-0.3,1.1-0.3,1.8c0,0.7,0.2,1.3,0.5,1.9c0.3,0.5,0.8,0.8,1.5,0.8c0.5,0,0.9-0.2,1.2-0.5c0.3-0.3,0.5-0.7,0.6-1.3h1.2
			c-0.1,1-0.5,1.7-1,2.1s-1.2,0.7-2.1,0.7c-1,0-1.7-0.3-2.3-1s-0.9-1.6-0.9-2.6c0-1.3,0.3-2.3,0.9-3s1.4-1.1,2.4-1.1
			C240.8,42.1,241.5,42.3,242,42.7z"/>
		<path class="st0" d="M244.6,48.2h1.4v1.5h-1.4V48.2z"/>
	</g>
	<polygon class="st0" points="16.1,37.7 16.1,17.2 0,43.3 16.1,69.3 16.1,48.8 12.9,48.8 12.9,57.7 4,43.3 12.9,28.8 12.9,37.7 	"/>
	<polygon class="st0" points="25.6,77.5 25.6,25.7 28,35.7 28,80.6 29.5,82.6 31.1,80.6 31.1,35.7 33.4,25.7 33.4,77.5 36.6,73.4 
		36.6,10.9 33.4,10.9 29.5,29.2 25.6,10.9 22.5,10.9 22.5,73.4 	"/>
	<polygon class="st0" points="46.1,41.4 46.1,28.5 52,38.3 55.8,38.3 43,17.3 43,44.5 55.2,44.5 46.1,59.4 46.1,49.6 43,49.6 
		43,70.4 60.9,41.4 	"/>
	<polygon class="st0" points="29.5,0 26.4,5.5 32.7,5.5 	"/>
</g>
</svg>
